# xmcd
#
# Track frame offsets: 
#        150
#        5490
#        19280
#        37883
#        45935
#        58760
#        68439
#        84648
#        91188
#        95929
#        102970
#        112069
#        117915
#        131592
#        143753
#        158029
#        176302
#        185720
#        197061
#        207658
#        226065
#        237542
#        247014
#        253934
#
# Disc length: 3416 seconds
#
# Revision: 2
# Processed by: cddbd v1.5.2PL0 Copyright (c) Steve Scherf et al.
# Submitted via: ExactAudioCopyFreeDBPlugin 1.0
#
DISCID=500d5618
DTITLE=Elvis Presley - Grand Roulette At The Sahara
DYEAR=1973
DGENRE=Country
TTITLE0=Also Sprach Zarathustra
TTITLE1=C C Rider
TTITLE2=I Got A Woman - Amen
TTITLE3=Love Me Tender
TTITLE4=Steamroller Blues
TTITLE5=Surrender (tease) - You Don´t Have To Say You Love Me
TTITLE6=You Gave Me A Mountain
TTITLE7=Love Me
TTITLE8=Blue Suede Shoes
TTITLE9=Heartbreak Hotel
TTITLE10=Long Tall Sally - Whole Lotta Shakin´
TTITLE11=Hound Dog
TTITLE12=I´m Leavin´
TTITLE13=Fever
TTITLE14=What Now My Love
TTITLE15=Suspicious Minds
TTITLE16=band introductions
TTITLE17=I´ll Remember You
TTITLE18=I Can´t Stop Loving You
TTITLE19=Bridge Over Troubled Water
TTITLE20=A Big Hunk O´Love
TTITLE21=It´s Over
TTITLE22=Can´t Help Falling In Love
TTITLE23=Closing Vamp
EXTD=
EXTT0=
EXTT1=
EXTT2=
EXTT3=
EXTT4=
EXTT5=
EXTT6=
EXTT7=
EXTT8=
EXTT9=
EXTT10=
EXTT11=
EXTT12=
EXTT13=
EXTT14=
EXTT15=
EXTT16=
EXTT17=
EXTT18=
EXTT19=
EXTT20=
EXTT21=
EXTT22=
EXTT23=
PLAYORDER=
